# xmcd
#
# Track frame offsets: 
#        150
#        17006
#        33767
#        48746
#        66312
#        81339
#        98003
#        115152
#        126861
#        142620
#        159242
#        173595
#
# Disc length: 2511 seconds
#
# Revision: 5
# Processed by: cddbd v1.5.2PL0 Copyright (c) Steve Scherf et al.
# Submitted via: ExactAudioCopy v1.1
#
DISCID=8f09cd0c
DTITLE=Francis Goya - Pleased to meet You, Mr. Valgre
DYEAR=2001
DGENRE=Blues
TTITLE0=Saaremaa Waltz
TTITLE1=Melody
TTITLE2=Stay On For A While
TTITLE3=You Could Not Wait For Me
TTITLE4=I Will Soon Return To You
TTITLE5=Bluebird
TTITLE6=I Hope To Overcome This
TTITLE7=Helmi
TTITLE8=A Faiy-Tale In Music
TTITLE9=Sunday In Kadriorg
TTITLE10=Ballad Of Pärnu
TTITLE11=Drinking-song
EXTD=YEAR: 2001 ID3G:   0
EXTT0=
EXTT1=
EXTT2=
EXTT3=
EXTT4=
EXTT5=
EXTT6=
EXTT7=
EXTT8=
EXTT9=
EXTT10=
EXTT11=
PLAYORDER=
